<svg width="33" height="33" viewBox="0 0 33 33" fill="none" xmlns="http://www.w3.org/2000/svg">
<path d="M3.54761 25.9077C4.89954 27.7882 6.6337 29.3616 8.63637 30.5249C10.6391 31.6881 12.865 32.4149 15.1683 32.6576C13.9833 30.8744 12.2608 29.2339 10.1104 27.9849C7.96005 26.7359 5.68278 26.0536 3.54761 25.9077Z" fill="url(#paint0_linear_758_3095)"/>
<path d="M12.9999 23.0116C8.85704 20.6047 4.37301 19.9913 1.16455 21.0749C1.47429 22.0986 1.88278 23.0898 2.38427 24.0345C5.17187 23.9699 8.21545 24.727 11.0475 26.3719C13.8796 28.0168 16.0457 30.287 17.3712 32.7411C18.4408 32.7083 19.5048 32.572 20.5482 32.3343C19.8995 29.0109 17.1418 25.419 12.9999 23.0116Z" fill="url(#paint1_linear_758_3095)"/>
<path d="M32.7419 13.2421C32.2152 11.0996 31.2621 9.08524 29.9396 7.31925C28.6171 5.55326 26.9523 4.07188 25.0446 2.96356C23.1369 1.85524 21.0254 1.14271 18.8363 0.86852C16.6471 0.594326 14.4251 0.76409 12.303 1.36768C15.8482 1.80154 19.7834 3.13243 23.6426 5.37445C27.5019 7.61646 30.61 10.3753 32.7419 13.2421Z" fill="url(#paint2_linear_758_3095)"/>
<path d="M27.584 21.0996C25.7693 18.0859 22.6607 15.2001 18.8312 12.9755C15.0018 10.7508 10.956 9.48006 7.4422 9.396C4.35089 9.32278 2.03078 10.2214 1.07844 11.861C1.07302 11.8707 1.06542 11.8799 1.05946 11.8897C0.973771 12.1972 0.900013 12.5052 0.832764 12.8144C2.16257 12.2894 3.70334 11.9971 5.41658 11.9645C9.22648 11.893 13.4903 13.1116 17.425 15.3975C21.3596 17.6835 24.5328 20.7851 26.3572 24.1291C27.1751 25.6357 27.6854 27.119 27.8877 28.5361C28.1231 28.3257 28.3541 28.1082 28.5781 27.8821C28.5841 27.8718 28.5879 27.8609 28.5938 27.8501C29.5462 26.209 29.1779 23.7489 27.584 21.0996Z" fill="url(#paint3_linear_758_3095)"/>
<path d="M15.9177 17.9897C10.0534 14.5828 3.57305 14.0491 0.456787 16.4267C0.462908 17.1709 0.519804 17.9138 0.62708 18.6503C1.54378 18.3724 2.48856 18.1974 3.44397 18.1286C6.9263 17.8666 10.7655 18.8369 14.2495 20.8619C17.7334 22.887 20.4798 25.743 21.9777 28.8955C22.3918 29.7592 22.7076 30.6666 22.9192 31.6007C23.6123 31.329 24.2862 31.0106 24.9362 30.6478C25.4579 26.7625 21.7836 21.3972 15.9177 17.9897Z" fill="url(#paint4_linear_758_3095)"/>
<path d="M30.6003 16.0553C28.7651 13.0448 25.6293 10.1509 21.7727 7.91159C17.9162 5.67229 13.8546 4.38153 10.3294 4.27794C7.64218 4.20039 5.5607 4.85173 4.48145 6.08229C8.96276 5.32302 14.8737 6.59914 20.6029 9.92745C26.3322 13.2558 30.3704 17.7593 31.9291 22.028C32.4633 20.4818 31.9985 18.351 30.6003 16.0553Z" fill="url(#paint5_linear_758_3095)"/>
<defs>
<linearGradient id="paint0_linear_758_3095" x1="21.9569" y1="7.24111" x2="7.12353" y2="32.7411" gradientUnits="userSpaceOnUse">
<stop offset="0.0001" stop-color="#C7F284"/>
<stop offset="1" stop-color="#00BEF0"/>
</linearGradient>
<linearGradient id="paint1_linear_758_3095" x1="21.9569" y1="7.24112" x2="7.12356" y2="32.7411" gradientUnits="userSpaceOnUse">
<stop offset="0.0001" stop-color="#C7F284"/>
<stop offset="1" stop-color="#00BEF0"/>
</linearGradient>
<linearGradient id="paint2_linear_758_3095" x1="21.9567" y1="7.24121" x2="7.12335" y2="32.7412" gradientUnits="userSpaceOnUse">
<stop offset="0.0001" stop-color="#C7F284"/>
<stop offset="1" stop-color="#00BEF0"/>
</linearGradient>
<linearGradient id="paint3_linear_758_3095" x1="21.9569" y1="7.24126" x2="7.12357" y2="32.7413" gradientUnits="userSpaceOnUse">
<stop offset="0.0001" stop-color="#C7F284"/>
<stop offset="1" stop-color="#00BEF0"/>
</linearGradient>
<linearGradient id="paint4_linear_758_3095" x1="21.9568" y1="7.24118" x2="7.12346" y2="32.7412" gradientUnits="userSpaceOnUse">
<stop offset="0.0001" stop-color="#C7F284"/>
<stop offset="1" stop-color="#00BEF0"/>
</linearGradient>
<linearGradient id="paint5_linear_758_3095" x1="21.9569" y1="7.2412" x2="7.12355" y2="32.7412" gradientUnits="userSpaceOnUse">
<stop offset="0.0001" stop-color="#C7F284"/>
<stop offset="1" stop-color="#00BEF0"/>
</linearGradient>
</defs>
</svg>
